<svg width="1440" height="2244" viewBox="0 0 1440 2244" fill="none" xmlns="http://www.w3.org/2000/svg">
<path d="M681.469 1593.91C296.663 1422.45 66.8206 1752.19 0 1938.49V2244H1440V1731.27C1347.49 1756.93 1066.27 1765.37 681.469 1593.91Z" fill="#242423"/>
<path d="M758.531 628.668C1143.34 794.48 1373.18 475.604 1440 295.439V1.94311e-05L4.95911e-05 1.94311e-05L4.95911e-05 495.834C92.508 471.024 373.725 462.855 758.531 628.668Z" fill="#E8EDDF"/>
<path d="M0 1986V489.684C0 489.684 185.326 420.277 304.183 424.81C601.614 436.155 843.277 711.325 1125.33 610.993C1319.09 542.066 1440 265 1440 265V1806.15C1440 1806.15 1240.07 1814.24 1112.34 1806.15C818.007 1787.49 599.272 1550.78 323.163 1660.05C143.89 1731 0 1986 0 1986Z" fill="#333533"/>
</svg>
