<svg width="493" height="83" viewBox="0 0 493 83" fill="none" xmlns="http://www.w3.org/2000/svg">
<path d="M31.064 43.0801C33.992 43.7041 36.344 45.1681 38.12 47.4721C39.896 49.7281 40.784 52.3201 40.784 55.2481C40.784 59.4721 39.296 62.8321 36.32 65.3281C33.392 67.7761 29.288 69.0001 24.008 69.0001H0.463989V18.4561H23.216C28.352 18.4561 32.36 19.6321 35.24 21.9841C38.168 24.3361 39.632 27.5281 39.632 31.5601C39.632 34.5361 38.84 37.0081 37.256 38.9761C35.72 40.9441 33.656 42.3121 31.064 43.0801ZM12.776 38.9041H20.84C22.856 38.9041 24.392 38.4721 25.448 37.6081C26.552 36.6961 27.104 35.3761 27.104 33.6481C27.104 31.9201 26.552 30.6001 25.448 29.6881C24.392 28.7761 22.856 28.3201 20.84 28.3201H12.776V38.9041ZM21.848 59.0641C23.912 59.0641 25.496 58.6081 26.6 57.6961C27.752 56.7361 28.328 55.3681 28.328 53.5921C28.328 51.8161 27.728 50.4241 26.528 49.4161C25.376 48.4081 23.768 47.9041 21.704 47.9041H12.776V59.0641H21.848ZM87.3089 60.0721H68.4449L65.4209 69.0001H52.5329L70.8209 18.4561H85.0769L103.365 69.0001H90.3329L87.3089 60.0721ZM84.1409 50.5681L77.8769 32.0641L71.6849 50.5681H84.1409ZM147.451 43.0801C150.379 43.7041 152.731 45.1681 154.507 47.4721C156.283 49.7281 157.171 52.3201 157.171 55.2481C157.171 59.4721 155.683 62.8321 152.707 65.3281C149.779 67.7761 145.675 69.0001 140.395 69.0001H116.851V18.4561H139.603C144.739 18.4561 148.747 19.6321 151.627 21.9841C154.555 24.3361 156.019 27.5281 156.019 31.5601C156.019 34.5361 155.227 37.0081 153.643 38.9761C152.107 40.9441 150.043 42.3121 147.451 43.0801ZM129.163 38.9041H137.227C139.243 38.9041 140.779 38.4721 141.835 37.6081C142.939 36.6961 143.491 35.3761 143.491 33.6481C143.491 31.9201 142.939 30.6001 141.835 29.6881C140.779 28.7761 139.243 28.3201 137.227 28.3201H129.163V38.9041ZM138.235 59.0641C140.299 59.0641 141.883 58.6081 142.987 57.6961C144.139 56.7361 144.715 55.3681 144.715 53.5921C144.715 51.8161 144.115 50.4241 142.915 49.4161C141.763 48.4081 140.155 47.9041 138.091 47.9041H129.163V59.0641H138.235ZM202.832 43.0801C205.76 43.7041 208.112 45.1681 209.888 47.4721C211.664 49.7281 212.552 52.3201 212.552 55.2481C212.552 59.4721 211.064 62.8321 208.088 65.3281C205.16 67.7761 201.056 69.0001 195.776 69.0001H172.232V18.4561H194.984C200.12 18.4561 204.128 19.6321 207.008 21.9841C209.936 24.3361 211.4 27.5281 211.4 31.5601C211.4 34.5361 210.608 37.0081 209.024 38.9761C207.488 40.9441 205.424 42.3121 202.832 43.0801ZM184.544 38.9041H192.608C194.624 38.9041 196.16 38.4721 197.216 37.6081C198.32 36.6961 198.872 35.3761 198.872 33.6481C198.872 31.9201 198.32 30.6001 197.216 29.6881C196.16 28.7761 194.624 28.3201 192.608 28.3201H184.544V38.9041ZM193.616 59.0641C195.68 59.0641 197.264 58.6081 198.368 57.6961C199.52 56.7361 200.096 55.3681 200.096 53.5921C200.096 51.8161 199.496 50.4241 198.296 49.4161C197.144 48.4081 195.536 47.9041 193.472 47.9041H184.544V59.0641H193.616ZM239.925 59.4961H256.053V69.0001H227.613V18.4561H239.925V59.4961ZM282.157 28.3201V38.5441H298.645V48.0481H282.157V59.1361H300.805V69.0001H269.845V18.4561H300.805V28.3201H282.157Z" fill="#242423"/>
<path d="M329.03 18.4561V69.0001H316.718V18.4561H329.03ZM382.233 18.4561V28.3201H368.841V69.0001H356.529V28.3201H343.137V18.4561H382.233Z" fill="#F5CB5C"/>
<path d="M417.35 69.576C415.19 69.576 413.414 68.952 412.022 67.704C410.678 66.408 410.006 64.824 410.006 62.952C410.006 61.032 410.678 59.424 412.022 58.128C413.414 56.832 415.19 56.184 417.35 56.184C419.462 56.184 421.19 56.832 422.534 58.128C423.926 59.424 424.622 61.032 424.622 62.952C424.622 64.824 423.926 66.408 422.534 67.704C421.19 68.952 419.462 69.576 417.35 69.576ZM417.35 40.272C415.19 40.272 413.414 39.648 412.022 38.4C410.678 37.104 410.006 35.52 410.006 33.648C410.006 31.728 410.678 30.12 412.022 28.824C413.414 27.528 415.19 26.88 417.35 26.88C419.462 26.88 421.19 27.528 422.534 28.824C423.926 30.12 424.622 31.728 424.622 33.648C424.622 35.52 423.926 37.104 422.534 38.4C421.19 39.648 419.462 40.272 417.35 40.272ZM459.483 0.599976L440.187 82.464H428.307L447.603 0.599976H459.483ZM492.108 0.599976L472.812 82.464H460.932L480.228 0.599976H492.108Z" fill="#333533"/>
</svg>
