<svg width="63" height="45" viewBox="0 0 63 45" fill="none" xmlns="http://www.w3.org/2000/svg">
<g filter="url(#filter0_b_46_35)">
<path d="M11.2881 18.4492C11.2881 19.2161 11.1367 19.9326 10.834 20.5986C10.5514 21.2646 10.1579 21.8499 9.65332 22.3545C9.16895 22.859 8.58366 23.2526 7.89746 23.5352C7.23145 23.8177 6.52507 23.959 5.77832 23.959C5.01139 23.959 4.29492 23.8177 3.62891 23.5352C2.96289 23.2526 2.3776 22.859 1.87305 22.3545C1.38867 21.8499 0.995117 21.2646 0.692383 20.5986C0.409831 19.9326 0.268555 19.2161 0.268555 18.4492C0.268555 17.7025 0.409831 16.9961 0.692383 16.3301C0.995117 15.6439 1.38867 15.0586 1.87305 14.5742C2.3776 14.0697 2.96289 13.6761 3.62891 13.3936C4.29492 13.0908 5.01139 12.9395 5.77832 12.9395C6.52507 12.9395 7.23145 13.0908 7.89746 13.3936C8.58366 13.6761 9.16895 14.0697 9.65332 14.5742C10.1579 15.0586 10.5514 15.6439 10.834 16.3301C11.1367 16.9961 11.2881 17.7025 11.2881 18.4492ZM11.2881 39.459C11.2881 40.2259 11.1367 40.9525 10.834 41.6387C10.5514 42.3047 10.1579 42.89 9.65332 43.3945C9.16895 43.8789 8.58366 44.2624 7.89746 44.5449C7.23145 44.8477 6.52507 44.999 5.77832 44.999C5.01139 44.999 4.29492 44.8477 3.62891 44.5449C2.96289 44.2624 2.3776 43.8789 1.87305 43.3945C1.38867 42.89 0.995117 42.3047 0.692383 41.6387C0.409831 40.9525 0.268555 40.2259 0.268555 39.459C0.268555 38.7122 0.409831 38.0059 0.692383 37.3398C0.995117 36.6536 1.38867 36.0684 1.87305 35.584C2.3776 35.0794 2.96289 34.6859 3.62891 34.4033C4.29492 34.1006 5.01139 33.9492 5.77832 33.9492C6.52507 33.9492 7.23145 34.1006 7.89746 34.4033C8.58366 34.6859 9.16895 35.0794 9.65332 35.584C10.1579 36.0684 10.5514 36.6536 10.834 37.3398C11.1367 38.0059 11.2881 38.7122 11.2881 39.459ZM43.6807 0.40625L27.3936 44H17.1611L33.4482 0.40625H43.6807ZM62.9951 0.40625L46.708 44H36.4756L52.7627 0.40625H62.9951Z" fill="#F5CB5C"/>
</g>
<defs>
<filter id="filter0_b_46_35" x="-3.73145" y="-3.59375" width="70.7266" height="52.5928" filterUnits="userSpaceOnUse" color-interpolation-filters="sRGB">
<feFlood flood-opacity="0" result="BackgroundImageFix"/>
<feGaussianBlur in="BackgroundImage" stdDeviation="2"/>
<feComposite in2="SourceAlpha" operator="in" result="effect1_backgroundBlur_46_35"/>
<feBlend mode="normal" in="SourceGraphic" in2="effect1_backgroundBlur_46_35" result="shape"/>
</filter>
</defs>
</svg>
